<svg xmlns="http://www.w3.org/2000/svg" width="110" height="110" viewBox="0 0 110 110">
  <g id="name" transform="translate(-25 -465)">
    <circle id="Ellipse_2" data-name="Ellipse 2" cx="55" cy="55" r="55" transform="translate(25 465)" fill="#1dca8c"/>
    <path id="np_profile_1594258_000000" d="M77.939,81.6a2.552,2.552,0,0,1-5.1,0,17.865,17.865,0,1,0-35.73,0,2.552,2.552,0,0,1-5.1,0,22.969,22.969,0,0,1,45.939,0ZM54.969,56.074A14.037,14.037,0,1,1,69.006,42.037,14.038,14.038,0,0,1,54.969,56.074Zm0-5.1a8.933,8.933,0,1,0-8.933-8.933A8.931,8.931,0,0,0,54.969,50.969Z" transform="translate(24.779 463.675)" fill="#fff"/>
  </g>
</svg>
